# xmcd CD database file
#
# Track frame offsets:
#	150
#	14557
#	22125
#	30832
#	40290
#	53605
#	65995
#	75405
#	87565
#	111172
#	122215
#	132490
#	145765
#	159415
#	170037
#	183622
#	193172
#	203322
#	216612
#	225847
#
# Disc length: 3138 seconds
#
# Revision: 2
# Processed by: cddbd v1.5.2PL0 Copyright (c) Steve Scherf et al.
# Submitted via: CDex 1.70beta2
#
DISCID=1e0c4014
DTITLE=valious - JAZZを聴きたくて X’mas Special
DYEAR=1995
DGENRE=Jazz
TTITLE0=The Christmas Song
TTITLE1=Joy To The World
TTITLE2=I Wish You A Merry Christmas
TTITLE3=Deck The Halls
TTITLE4=Santa Claus Is Coming To Town
TTITLE5=Christmas Waltz
TTITLE6=Let It Snow！Let It Snow！Let It Snow！
TTITLE7=The Star Carol
TTITLE8=Jingle Bells
TTITLE9=Silent Night
TTITLE10=Rudolph The Red-Nosed Reindeer
TTITLE11=Christmas Heart
TTITLE12=O Tannenbaum
TTITLE13=Winter Wonderland
TTITLE14=The Little Drummer Boy
TTITLE15=O Little Town Of Bethlehem
TTITLE16=Frosty The Snowman
TTITLE17=O’Holly Night
TTITLE18=Have Yourself A Merry Little Christmas
TTITLE19=White Christmas
EXTD=YEAR: 1995
EXTT0=
EXTT1=
EXTT2=
EXTT3=
EXTT4=
EXTT5=
EXTT6=
EXTT7=
EXTT8=
EXTT9=
EXTT10=
EXTT11=
EXTT12=
EXTT13=
EXTT14=
EXTT15=
EXTT16=
EXTT17=
EXTT18=
EXTT19=
PLAYORDER=
